# xmcd
#
# Track frame offsets:
#	187
#	56225
#	108792
#	158692
#
# Disc length: 2539 seconds
#
# Revision: 2
# Processed by: cddbd v1.5PL3 Copyright (c) Steve Scherf et al.
# Submitted via: audiograbber 1.82.01
#
DISCID=2909e904
DTITLE=Blackley/Powell/Wilen/Shorter/Morgen - Paris Jam Session
DYEAR=1961
DGENRE=Jazz
TTITLE0=Dance of the infidels
TTITLE1=Bouncing with bud
TTITLE2=The Midget
TTITLE3=Night in Tunesia
EXTD=
EXTT0=
EXTT1=
EXTT2=
EXTT3=
PLAYORDER=
